# xmcd
#
# Track frame offsets:
#	150
#	18608
#	32436
#	45762
#	60467
#	73511
#	83352
#	97043
#	108833
#	122489
#	134742
#	148422
#	164447
#	178342
#	191492
#	204168
#	218448
#	231780
#	243711
#	258022
#	276987
#	293866
#	308265
#
# Disc length: 4469 seconds
#
# Revision: 1
# Processed by: cddbd v1.5.2PL0 Copyright (c) Steve Scherf et al.
# Submitted via: audiograbber 1.83.01
#
DISCID=3f117317
DTITLE=Various Artist - Soul Searchin'
DYEAR=2013
DGENRE=Soul
TTITLE0=Ann Peebles - I Didn't Take Your Man
TTITLE1=Quiet Elegance - Mama Said
TTITLE2=Eddie McGee - What Made You Change Your Mind
TTITLE3=Jean Plum - I'm Gonna Stay Away
TTITLE4=Syl Johnson - I'm Yours
TTITLE5=James Fry - Still Around
TTITLE6=The Melodics - Ain't That Sharing My Love
TTITLE7=Veniece - Stepchild
TTITLE8=The Duncan Sisters - It's You That I Need
TTITLE9=The Memphians - Slidin' In And Out (Of My Neighbour's House)
TTITLE10=Donna Rhodes - Where's Your Love Been
TTITLE11=Al Green - Loving You
TTITLE12=O. V. Wright - You Gotta Have Love
TTITLE13=Bobby McClure - Love Trap
TTITLE14=Al Green - Glory Glory
TTITLE15=Ann Peebles - If This Is Heaven
TTITLE16=Willie Walker - Love Makes The World Go Round
TTITLE17=Al Green - Happy
TTITLE18=Jean Plum - Pour On The Loving
TTITLE19=O. V. Wright - I Found Peace
TTITLE20=Majik - Back Into Your Heart
TTITLE21=Quiet Elegance and Dan Greer - You Brought The Sun Back Into My Life
TTITLE22=Syl Johnson - Mystery Lady
EXTD=
EXTT0=
EXTT1=
EXTT2=
EXTT3=
EXTT4=
EXTT5=
EXTT6=
EXTT7=
EXTT8=
EXTT9=
EXTT10=
EXTT11=
EXTT12=
EXTT13=
EXTT14=
EXTT15=
EXTT16=
EXTT17=
EXTT18=
EXTT19=
EXTT20=
EXTT21=
EXTT22=
PLAYORDER=
